<?xml version="1.0" encoding="utf-8"?>
<!-- Generator: Adobe Illustrator 22.0.1, SVG Export Plug-In . SVG Version: 6.00 Build 0)  -->
<svg version="1.1" id="Layer_1" xmlns="http://www.w3.org/2000/svg" xmlns:xlink="http://www.w3.org/1999/xlink" x="0px" y="0px"
	 width="500px" height="500px" viewBox="0 0 500 500" style="enable-background:new 0 0 500 500;" xml:space="preserve">
<style type="text/css">
	.st0{fill:url(#SVGID_1_);}
	.st1{fill:url(#SVGID_2_);}
	.st2{fill:url(#SVGID_3_);}
	.st3{fill:url(#SVGID_4_);}
	.st4{fill:url(#SVGID_5_);}
	.st5{fill:url(#SVGID_6_);}
	.st6{fill:url(#SVGID_7_);}
	.st7{fill:url(#SVGID_8_);}
	.st8{fill:url(#SVGID_9_);}
	.st9{display:none;}
	.st10{display:inline;fill:url(#SVGID_10_);}
	.st11{display:inline;fill:url(#SVGID_11_);}
	.st12{display:inline;fill:url(#SVGID_12_);}
	.st13{display:inline;fill:url(#SVGID_13_);}
	.st14{display:inline;}
	.st15{fill:url(#SVGID_14_);}
	.st16{fill:url(#SVGID_15_);}
	.st17{fill:url(#SVGID_16_);}
	.st18{fill:url(#SVGID_17_);}
	.st19{fill:url(#SVGID_18_);}
	.st20{fill:url(#SVGID_19_);}
	.st21{fill:url(#SVGID_20_);}
	.st22{fill:url(#SVGID_21_);}
	.st23{fill:url(#SVGID_22_);}
</style>
<g id="Check">
	
		<radialGradient id="SVGID_1_" cx="-28.8731" cy="443.569" r="125.3313" gradientTransform="matrix(3.7037 0 0 -3.7037 335.6155 1788.3612)" gradientUnits="userSpaceOnUse">
		<stop  offset="0" style="stop-color:#F9F900"/>
		<stop  offset="0.586" style="stop-color:#549413"/>
		<stop  offset="1" style="stop-color:#043100"/>
	</radialGradient>
	<path class="st0" d="M249.7,23.9C127,23.9,27.5,123.4,27.5,246.1S127,468.3,249.7,468.3s222.2-99.5,222.2-222.2
		S372.4,23.9,249.7,23.9z M249.7,423.9c-98.2,0-177.8-79.6-177.8-177.8S151.5,68.3,249.7,68.3s177.8,79.6,177.8,177.8
		S347.8,423.9,249.7,423.9z"/>
	
		<radialGradient id="SVGID_2_" cx="-21.1229" cy="422.0692" r="100.3032" gradientTransform="matrix(3.7037 0 0 -3.7037 335.6155 1788.3612)" gradientUnits="userSpaceOnUse">
		<stop  offset="0" style="stop-color:#F9F900"/>
		<stop  offset="0.586" style="stop-color:#549413"/>
		<stop  offset="1" style="stop-color:#043100"/>
	</radialGradient>
	<path class="st1" d="M249.7,28.9c-120,0-217.3,97.3-217.3,217.3s97.3,217.3,217.3,217.3S467,366.2,467,246.2
		C467,126.1,369.7,28.9,249.7,28.9z M249.7,423.9c-98.2,0-177.8-79.6-177.8-177.8S151.5,68.3,249.7,68.3s177.8,79.6,177.8,177.8
		S347.8,423.9,249.7,423.9z"/>
	
		<radialGradient id="SVGID_3_" cx="-22.5389" cy="380.0052" r="76.2413" gradientTransform="matrix(3.7037 0 0 -2.2508 335.6155 1075.5101)" gradientUnits="userSpaceOnUse">
		<stop  offset="0" style="stop-color:#FFFFFF"/>
		<stop  offset="1" style="stop-color:#FFFFFF;stop-opacity:0"/>
	</radialGradient>
	<path class="st2" d="M249.7,68.4c88.6,0,162,64.8,175.5,149.6c14.7,6.1,28.6,13,41.5,20.5c-4-116.5-99.6-209.6-217-209.6
		s-213,93.2-217.1,209.6c13-7.5,26.9-14.4,41.5-20.5C87.6,133.1,161.1,68.4,249.7,68.4z"/>
	
		<radialGradient id="SVGID_4_" cx="-14.8729" cy="391.5691" r="109.6378" gradientTransform="matrix(3.7037 0 0 -3.7037 335.6155 1788.3612)" gradientUnits="userSpaceOnUse">
		<stop  offset="0" style="stop-color:#F9F900"/>
		<stop  offset="0.586" style="stop-color:#549413"/>
		<stop  offset="1" style="stop-color:#043100"/>
	</radialGradient>
	<path class="st3" d="M249.7,61C147.4,61,64.5,143.9,64.5,246.1c0,102.3,82.9,185.2,185.2,185.2s185.2-82.9,185.2-185.2
		C434.9,143.9,351.9,61,249.7,61z M249.7,423.9c-98.2,0-177.8-79.6-177.8-177.8S151.5,68.3,249.7,68.3s177.8,79.6,177.8,177.8
		S347.8,423.9,249.7,423.9z"/>
	<g>
		
			<radialGradient id="SVGID_5_" cx="-4.3504" cy="387.002" r="57.4041" gradientTransform="matrix(3.7037 0 0 -3.7037 335.6155 1788.3612)" gradientUnits="userSpaceOnUse">
			<stop  offset="0" style="stop-color:#F9F900"/>
			<stop  offset="0.586" style="stop-color:#549413"/>
			<stop  offset="1" style="stop-color:#043100"/>
		</radialGradient>
		<polygon class="st4" points="215,317.1 208.9,295.3 309.1,169.7 357,138.3 		"/>
		
			<radialGradient id="SVGID_6_" cx="-41.5784" cy="435.4236" r="38.2299" gradientTransform="matrix(3.7037 0 0 -3.7037 335.6155 1788.3612)" gradientUnits="userSpaceOnUse">
			<stop  offset="0" style="stop-color:#F9F900"/>
			<stop  offset="0.586" style="stop-color:#549413"/>
			<stop  offset="1" style="stop-color:#043100"/>
		</radialGradient>
		<polygon class="st5" points="134.9,252.6 153.7,250.2 208.9,295.3 215,317.1 		"/>
		
			<radialGradient id="SVGID_7_" cx="-36.4686" cy="429.096" r="98.8024" gradientTransform="matrix(3.7037 0 0 -3.7037 335.6155 1788.3612)" gradientUnits="userSpaceOnUse">
			<stop  offset="0" style="stop-color:#F9F900"/>
			<stop  offset="0.586" style="stop-color:#549413"/>
			<stop  offset="1" style="stop-color:#043100"/>
		</radialGradient>
		<polygon class="st6" points="357,138.3 396.7,176.7 223.1,399.6 92.6,301.3 134.9,252.6 215,317.1 		"/>
		<g>
			
				<radialGradient id="SVGID_8_" cx="-30.2664" cy="387.3357" r="78.8888" gradientTransform="matrix(3.7037 0 0 -3.7037 335.6155 1788.3612)" gradientUnits="userSpaceOnUse">
				<stop  offset="0" style="stop-color:#FFFFFF;stop-opacity:0.5"/>
				<stop  offset="1" style="stop-color:#FFFFFF;stop-opacity:0"/>
			</radialGradient>
			<path class="st7" d="M344.7,243.5l52-66.8L357,138.3L245.3,278.9C275.2,265.7,308.8,253.2,344.7,243.5z"/>
			
				<radialGradient id="SVGID_9_" cx="-30.2673" cy="387.3336" r="78.8872" gradientTransform="matrix(3.7037 0 0 -3.7037 335.6155 1788.3612)" gradientUnits="userSpaceOnUse">
				<stop  offset="0" style="stop-color:#FFFFFF;stop-opacity:0.5"/>
				<stop  offset="1" style="stop-color:#FFFFFF;stop-opacity:0"/>
			</radialGradient>
			<path class="st8" d="M92.6,301.3l46.1,34.7c14.9-9.5,34.6-21.2,58.1-33.6l-61.9-49.8L92.6,301.3z"/>
		</g>
	</g>
</g>
<g id="Cross" class="st9">
	
		<radialGradient id="SVGID_10_" cx="-28.8731" cy="443.569" r="125.3313" gradientTransform="matrix(3.7037 0 0 -3.7037 335.6155 1788.3612)" gradientUnits="userSpaceOnUse">
		<stop  offset="0" style="stop-color:#DB7070"/>
		<stop  offset="0.586" style="stop-color:#B01212"/>
		<stop  offset="1" style="stop-color:#510000"/>
	</radialGradient>
	<path class="st10" d="M249.7,23.9C127,23.9,27.5,123.4,27.5,246.1S127,468.3,249.7,468.3s222.2-99.5,222.2-222.2
		S372.4,23.9,249.7,23.9z M249.7,423.9c-98.2,0-177.8-79.6-177.8-177.8S151.5,68.3,249.7,68.3s177.8,79.6,177.8,177.8
		S347.8,423.9,249.7,423.9z"/>
	
		<radialGradient id="SVGID_11_" cx="-21.1229" cy="422.0692" r="100.3032" gradientTransform="matrix(3.7037 0 0 -3.7037 335.6155 1788.3612)" gradientUnits="userSpaceOnUse">
		<stop  offset="0" style="stop-color:#DB7070"/>
		<stop  offset="0.586" style="stop-color:#B01212"/>
		<stop  offset="1" style="stop-color:#510000"/>
	</radialGradient>
	<path class="st11" d="M249.7,28.9c-120,0-217.3,97.3-217.3,217.3s97.3,217.3,217.3,217.3S467,366.2,467,246.2
		C467,126.1,369.7,28.9,249.7,28.9z M249.7,423.9c-98.2,0-177.8-79.6-177.8-177.8S151.5,68.3,249.7,68.3s177.8,79.6,177.8,177.8
		S347.8,423.9,249.7,423.9z"/>
	
		<radialGradient id="SVGID_12_" cx="-22.5389" cy="380.0052" r="76.2413" gradientTransform="matrix(3.7037 0 0 -2.2508 335.6155 1075.5101)" gradientUnits="userSpaceOnUse">
		<stop  offset="0" style="stop-color:#FFFFFF"/>
		<stop  offset="1" style="stop-color:#000000"/>
	</radialGradient>
	<path class="st12" d="M249.7,68.4c88.6,0,162,64.8,175.5,149.6c14.7,6.1,28.6,13,41.5,20.5c-4-116.5-99.6-209.6-217-209.6
		s-213,93.2-217.1,209.6c13-7.5,26.9-14.4,41.5-20.5C87.6,133.1,161.1,68.4,249.7,68.4z"/>
	
		<radialGradient id="SVGID_13_" cx="-14.8729" cy="391.5691" r="109.6378" gradientTransform="matrix(3.7037 0 0 -3.7037 335.6155 1788.3612)" gradientUnits="userSpaceOnUse">
		<stop  offset="0" style="stop-color:#DB7070"/>
		<stop  offset="0.586" style="stop-color:#B01212"/>
		<stop  offset="1" style="stop-color:#510000"/>
	</radialGradient>
	<path class="st13" d="M249.7,61C147.4,61,64.5,143.9,64.5,246.1c0,102.3,82.9,185.2,185.2,185.2s185.2-82.9,185.2-185.2
		C434.9,143.9,351.9,61,249.7,61z M249.7,423.9c-98.2,0-177.8-79.6-177.8-177.8S151.5,68.3,249.7,68.3s177.8,79.6,177.8,177.8
		S347.8,423.9,249.7,423.9z"/>
	<g class="st14">
		
			<radialGradient id="SVGID_14_" cx="-4.3504" cy="387.002" r="57.4041" gradientTransform="matrix(3.7037 0 0 -3.7037 335.6155 1788.3612)" gradientUnits="userSpaceOnUse">
			<stop  offset="0" style="stop-color:#DB7070"/>
			<stop  offset="0.586" style="stop-color:#B01212"/>
			<stop  offset="1" style="stop-color:#510000"/>
		</radialGradient>
		<polygon class="st15" points="215,317.1 208.9,295.3 309.1,169.7 357,138.3 		"/>
		
			<radialGradient id="SVGID_15_" cx="-41.5784" cy="435.4236" r="38.2299" gradientTransform="matrix(3.7037 0 0 -3.7037 335.6155 1788.3612)" gradientUnits="userSpaceOnUse">
			<stop  offset="0" style="stop-color:#DB7070"/>
			<stop  offset="0.586" style="stop-color:#B01212"/>
			<stop  offset="1" style="stop-color:#510000"/>
		</radialGradient>
		<polygon class="st16" points="134.9,252.6 153.7,250.2 208.9,295.3 215,317.1 		"/>
		
			<radialGradient id="SVGID_16_" cx="-36.4686" cy="429.096" r="98.8024" gradientTransform="matrix(3.7037 0 0 -3.7037 335.6155 1788.3612)" gradientUnits="userSpaceOnUse">
			<stop  offset="0" style="stop-color:#DB7070"/>
			<stop  offset="0.586" style="stop-color:#B01212"/>
			<stop  offset="1" style="stop-color:#510000"/>
		</radialGradient>
		<polygon class="st17" points="357,138.3 396.7,176.7 223.1,399.6 92.6,301.3 134.9,252.6 215,317.1 		"/>
		<g>
			
				<radialGradient id="SVGID_17_" cx="-30.2664" cy="387.3357" r="78.8888" gradientTransform="matrix(3.7037 0 0 -3.7037 335.6155 1788.3612)" gradientUnits="userSpaceOnUse">
				<stop  offset="0" style="stop-color:#FFFFFF"/>
				<stop  offset="7.380247e-03" style="stop-color:#F6F6F6"/>
				<stop  offset="4.767627e-02" style="stop-color:#C8C8C8"/>
				<stop  offset="9.308982e-02" style="stop-color:#9D9D9D"/>
				<stop  offset="0.1419" style="stop-color:#777777"/>
				<stop  offset="0.195" style="stop-color:#575757"/>
				<stop  offset="0.2537" style="stop-color:#3B3B3B"/>
				<stop  offset="0.32" style="stop-color:#252525"/>
				<stop  offset="0.3974" style="stop-color:#141414"/>
				<stop  offset="0.4931" style="stop-color:#090909"/>
				<stop  offset="0.6274" style="stop-color:#020202"/>
				<stop  offset="1" style="stop-color:#000000"/>
			</radialGradient>
			<path class="st18" d="M344.7,243.5l52-66.8L357,138.3L245.3,278.9C275.2,265.7,308.8,253.2,344.7,243.5z"/>
		</g>
	</g>
	<g class="st14">
		
			<radialGradient id="SVGID_18_" cx="-19.358" cy="508.8037" r="79.4076" gradientTransform="matrix(3.6757 -0.4549 0.4549 3.6757 104.5411 -1794.6165)" gradientUnits="userSpaceOnUse">
			<stop  offset="0" style="stop-color:#DB7070"/>
			<stop  offset="0.586" style="stop-color:#B01212"/>
			<stop  offset="1" style="stop-color:#510000"/>
		</radialGradient>
		<polygon class="st19" points="126.6,154.7 123.1,177.1 301.7,352.2 353,377.6 		"/>
		
			<radialGradient id="SVGID_19_" cx="-152.6204" cy="492.3113" r="79.4076" gradientTransform="matrix(-3.6757 -0.4549 -0.4549 3.6757 -102.5411 -1794.6165)" gradientUnits="userSpaceOnUse">
			<stop  offset="0" style="stop-color:#DB7070"/>
			<stop  offset="0.586" style="stop-color:#B01212"/>
			<stop  offset="1" style="stop-color:#510000"/>
		</radialGradient>
		<polygon class="st20" points="372.7,154.7 376.2,177.1 197.7,352.2 146.3,377.6 		"/>
		
			<radialGradient id="SVGID_20_" cx="-336.277" cy="871.3734" r="161.5058" gradientTransform="matrix(-1 0 0 1 13.4477 -480.4823)" gradientUnits="userSpaceOnUse">
			<stop  offset="0" style="stop-color:#DB7070"/>
			<stop  offset="0.586" style="stop-color:#B01212"/>
			<stop  offset="1" style="stop-color:#510000"/>
		</radialGradient>
		<polygon class="st21" points="249.7,275.8 249.7,301.2 301.7,352.2 353,377.6 		"/>
		
			<radialGradient id="SVGID_21_" cx="-276.2492" cy="796.8372" r="351.0202" gradientTransform="matrix(-1 0 0 1 13.4477 -480.4823)" gradientUnits="userSpaceOnUse">
			<stop  offset="0" style="stop-color:#DB7070"/>
			<stop  offset="0.586" style="stop-color:#B01212"/>
			<stop  offset="1" style="stop-color:#510000"/>
		</radialGradient>
		<polygon class="st22" points="111.7,334.6 146.3,377.6 249.7,275.8 353,377.6 387.7,334.6 289.7,236.5 372.7,154.7 331.3,114.7 
			249.7,196.4 168,114.7 126.6,154.7 209.6,236.5 		"/>
		<g>
			
				<radialGradient id="SVGID_22_" cx="-168.0744" cy="526.7782" r="67.0296" gradientTransform="matrix(-3.6757 -0.4549 -0.4549 3.6757 -102.5411 -1794.6165)" gradientUnits="userSpaceOnUse">
				<stop  offset="0" style="stop-color:#FFFFFF"/>
				<stop  offset="7.380247e-03" style="stop-color:#F6F6F6"/>
				<stop  offset="4.767627e-02" style="stop-color:#C8C8C8"/>
				<stop  offset="9.308982e-02" style="stop-color:#9D9D9D"/>
				<stop  offset="0.1419" style="stop-color:#777777"/>
				<stop  offset="0.195" style="stop-color:#575757"/>
				<stop  offset="0.2537" style="stop-color:#3B3B3B"/>
				<stop  offset="0.32" style="stop-color:#252525"/>
				<stop  offset="0.3974" style="stop-color:#141414"/>
				<stop  offset="0.4931" style="stop-color:#090909"/>
				<stop  offset="0.6274" style="stop-color:#020202"/>
				<stop  offset="1" style="stop-color:#000000"/>
			</radialGradient>
			<path class="st23" d="M147.5,298.7l-35.9,35.9l34.6,43l103.4-101.7C218.3,285.3,184.3,293.4,147.5,298.7z"/>
		</g>
	</g>
</g>
</svg>
